<svg width="278" height="98" viewBox="0 0 278 98" fill="none" xmlns="http://www.w3.org/2000/svg">
<g filter="url(#filter0_d_1_3)">
<path d="M4.68 12.048V0.399994H18.632V26C10.952 26 4.68 19.728 4.68 12.048ZM18.632 26H52.68C59.72 26 65.352 31.76 65.352 38.8V76.688C65.352 84.368 59.08 90 51.4 90H16.712C10.056 90 4.68 84.624 4.68 77.968V38.8H18.632V77.968H51.4V38.8H18.632V26ZM92.84 24.208H128.424C135.08 24.208 140.456 29.584 140.456 36.368V52.624H140.328C139.816 58.768 134.696 63.504 128.424 63.504H93.992V51.344H127.272V36.368H93.992V51.344C86.696 51.344 80.68 45.456 80.68 38.16V36.368H80.808C80.808 29.584 86.184 24.208 92.84 24.208ZM80.68 76.816V76.688C80.68 69.392 86.696 63.504 93.992 63.504V77.968H138.024V90H93.992C84.776 90 80.68 84.112 80.68 76.816ZM168.989 90H155.805V0.399994H168.989V90ZM197.489 90H184.305V0.399994H197.489V90ZM219.461 24.208H261.957C268.613 24.208 273.989 29.584 273.989 36.24V77.968H260.805V63.12H226.117V77.968H260.805V90H224.965C218.181 90 212.805 84.624 212.805 77.968V63.12C212.805 56.464 218.181 51.088 224.965 51.088H260.805V36.24H219.461V24.208Z" fill="#09090B"/>
<path d="M4.68 0.399994V-1.60001H2.68V0.399994H4.68ZM18.632 0.399994H20.632V-1.60001H18.632V0.399994ZM18.632 26V28H20.632V26H18.632ZM18.632 26V24H16.632V26H18.632ZM4.68 38.8V36.8H2.68V38.8H4.68ZM18.632 38.8H20.632V36.8H18.632V38.8ZM18.632 77.968H16.632V79.968H18.632V77.968ZM51.4 77.968V79.968H53.4V77.968H51.4ZM51.4 38.8H53.4V36.8H51.4V38.8ZM18.632 38.8H16.632V40.8H18.632V38.8ZM6.68 12.048V0.399994H2.68V12.048H6.68ZM4.68 2.39999H18.632V-1.60001H4.68V2.39999ZM16.632 0.399994V26H20.632V0.399994H16.632ZM18.632 24C12.0566 24 6.68 18.6234 6.68 12.048H2.68C2.68 20.8326 9.84743 28 18.632 28V24ZM18.632 28H52.68V24H18.632V28ZM52.68 28C58.5893 28 63.352 32.8383 63.352 38.8H67.352C67.352 30.6817 60.8507 24 52.68 24V28ZM63.352 38.8V76.688H67.352V38.8H63.352ZM63.352 76.688C63.352 83.1423 58.1006 88 51.4 88V92C60.0594 92 67.352 85.5937 67.352 76.688H63.352ZM51.4 88H16.712V92H51.4V88ZM16.712 88C11.1606 88 6.68 83.5194 6.68 77.968H2.68C2.68 85.7286 8.95143 92 16.712 92V88ZM6.68 77.968V38.8H2.68V77.968H6.68ZM4.68 40.8H18.632V36.8H4.68V40.8ZM16.632 38.8V77.968H20.632V38.8H16.632ZM18.632 79.968H51.4V75.968H18.632V79.968ZM53.4 77.968V38.8H49.4V77.968H53.4ZM51.4 36.8H18.632V40.8H51.4V36.8ZM20.632 38.8V26H16.632V38.8H20.632ZM140.456 52.624V54.624H142.456V52.624H140.456ZM140.328 52.624V50.624H138.488L138.335 52.4579L140.328 52.624ZM93.992 63.504H91.992V65.504H93.992V63.504ZM93.992 51.344V49.344H91.992V51.344H93.992ZM127.272 51.344V53.344H129.272V51.344H127.272ZM127.272 36.368H129.272V34.368H127.272V36.368ZM93.992 36.368V34.368H91.992V36.368H93.992ZM93.992 51.344V53.344H95.992V51.344H93.992ZM80.68 36.368V34.368H78.68V36.368H80.68ZM80.808 36.368V38.368H82.808V36.368H80.808ZM93.992 63.504H95.992V61.504H93.992V63.504ZM93.992 77.968H91.992V79.968H93.992V77.968ZM138.024 77.968H140.024V75.968H138.024V77.968ZM138.024 90V92H140.024V90H138.024ZM92.84 26.208H128.424V22.208H92.84V26.208ZM128.424 26.208C133.962 26.208 138.456 30.6747 138.456 36.368H142.456C142.456 28.4933 136.198 22.208 128.424 22.208V26.208ZM138.456 36.368V52.624H142.456V36.368H138.456ZM140.456 50.624H140.328V54.624H140.456V50.624ZM138.335 52.4579C137.91 57.5598 133.661 61.504 128.424 61.504V65.504C135.731 65.504 141.722 59.9762 142.321 52.7901L138.335 52.4579ZM128.424 61.504H93.992V65.504H128.424V61.504ZM95.992 63.504V51.344H91.992V63.504H95.992ZM93.992 53.344H127.272V49.344H93.992V53.344ZM129.272 51.344V36.368H125.272V51.344H129.272ZM127.272 34.368H93.992V38.368H127.272V34.368ZM91.992 36.368V51.344H95.992V36.368H91.992ZM93.992 49.344C87.7753 49.344 82.68 44.3264 82.68 38.16H78.68C78.68 46.5856 85.6167 53.344 93.992 53.344V49.344ZM82.68 38.16V36.368H78.68V38.16H82.68ZM80.68 38.368H80.808V34.368H80.68V38.368ZM82.808 36.368C82.808 30.6747 87.3024 26.208 92.84 26.208V22.208C85.0656 22.208 78.808 28.4933 78.808 36.368H82.808ZM82.68 76.816V76.688H78.68V76.816H82.68ZM82.68 76.688C82.68 70.5216 87.7753 65.504 93.992 65.504V61.504C85.6167 61.504 78.68 68.2624 78.68 76.688H82.68ZM91.992 63.504V77.968H95.992V63.504H91.992ZM93.992 79.968H138.024V75.968H93.992V79.968ZM136.024 77.968V90H140.024V77.968H136.024ZM138.024 88H93.992V92H138.024V88ZM93.992 88C89.8304 88 87.0827 86.6861 85.3572 84.7957C83.6027 82.8735 82.68 80.1077 82.68 76.816H78.68C78.68 80.8203 79.8053 84.6465 82.4028 87.4923C85.0293 90.3699 88.9376 92 93.992 92V88ZM168.989 90V92H170.989V90H168.989ZM155.805 90H153.805V92H155.805V90ZM155.805 0.399994V-1.60001H153.805V0.399994H155.805ZM168.989 0.399994H170.989V-1.60001H168.989V0.399994ZM168.989 88H155.805V92H168.989V88ZM157.805 90V0.399994H153.805V90H157.805ZM155.805 2.39999H168.989V-1.60001H155.805V2.39999ZM166.989 0.399994V90H170.989V0.399994H166.989ZM197.489 90V92H199.489V90H197.489ZM184.305 90H182.305V92H184.305V90ZM184.305 0.399994V-1.60001H182.305V0.399994H184.305ZM197.489 0.399994H199.489V-1.60001H197.489V0.399994ZM197.489 88H184.305V92H197.489V88ZM186.305 90V0.399994H182.305V90H186.305ZM184.305 2.39999H197.489V-1.60001H184.305V2.39999ZM195.489 0.399994V90H199.489V0.399994H195.489ZM219.461 24.208V22.208H217.461V24.208H219.461ZM273.989 77.968V79.968H275.989V77.968H273.989ZM260.805 77.968H258.805V79.968H260.805V77.968ZM260.805 63.12H262.805V61.12H260.805V63.12ZM226.117 63.12V61.12H224.117V63.12H226.117ZM226.117 77.968H224.117V79.968H226.117V77.968ZM260.805 77.968H262.805V75.968H260.805V77.968ZM260.805 90V92H262.805V90H260.805ZM260.805 51.088V53.088H262.805V51.088H260.805ZM260.805 36.24H262.805V34.24H260.805V36.24ZM219.461 36.24H217.461V38.24H219.461V36.24ZM219.461 26.208H261.957V22.208H219.461V26.208ZM261.957 26.208C267.508 26.208 271.989 30.6886 271.989 36.24H275.989C275.989 28.4794 269.718 22.208 261.957 22.208V26.208ZM271.989 36.24V77.968H275.989V36.24H271.989ZM273.989 75.968H260.805V79.968H273.989V75.968ZM262.805 77.968V63.12H258.805V77.968H262.805ZM260.805 61.12H226.117V65.12H260.805V61.12ZM224.117 63.12V77.968H228.117V63.12H224.117ZM226.117 79.968H260.805V75.968H226.117V79.968ZM258.805 77.968V90H262.805V77.968H258.805ZM260.805 88H224.965V92H260.805V88ZM224.965 88C219.272 88 214.805 83.5056 214.805 77.968H210.805C210.805 85.7424 217.09 92 224.965 92V88ZM214.805 77.968V63.12H210.805V77.968H214.805ZM214.805 63.12C214.805 57.5824 219.272 53.088 224.965 53.088V49.088C217.09 49.088 210.805 55.3456 210.805 63.12H214.805ZM224.965 53.088H260.805V49.088H224.965V53.088ZM262.805 51.088V36.24H258.805V51.088H262.805ZM260.805 34.24H219.461V38.24H260.805V34.24ZM221.461 36.24V24.208H217.461V36.24H221.461Z" fill="#F4F4F5"/>
</g>
<defs>
<filter id="filter0_d_1_3" x="0.68" y="0.399994" width="277.309" height="97.6" filterUnits="userSpaceOnUse" color-interpolation-filters="sRGB">
<feFlood flood-opacity="0" result="BackgroundImageFix"/>
<feColorMatrix in="SourceAlpha" type="matrix" values="0 0 0 0 0 0 0 0 0 0 0 0 0 0 0 0 0 0 127 0" result="hardAlpha"/>
<feOffset dy="4"/>
<feGaussianBlur stdDeviation="2"/>
<feComposite in2="hardAlpha" operator="out"/>
<feColorMatrix type="matrix" values="0 0 0 0 0 0 0 0 0 0 0 0 0 0 0 0 0 0 0.25 0"/>
<feBlend mode="normal" in2="BackgroundImageFix" result="effect1_dropShadow_1_3"/>
<feBlend mode="normal" in="SourceGraphic" in2="effect1_dropShadow_1_3" result="shape"/>
</filter>
</defs>
</svg>
